<?xml version="1.0" encoding="utf-8"?>
<!-- Generator: Adobe Illustrator 27.5.0, SVG Export Plug-In . SVG Version: 6.00 Build 0)  -->
<svg version="1.1" xmlns="http://www.w3.org/2000/svg" xmlns:xlink="http://www.w3.org/1999/xlink" x="0px" y="0px"
	 viewBox="0 0 1200 800" style="enable-background:new 0 0 1200 800;" xml:space="preserve">
<g id="Background">
	
		<rect x="200" y="-200" transform="matrix(-1.836970e-16 1 -1 -1.836970e-16 1000 -200)" style="fill:#D3E9F7;" width="800" height="1200"/>
</g>
<g id="Graphic_Elements">
	<g>
		<defs>
			<rect id="SVGID_1_" width="1200" height="800"/>
		</defs>
		<clipPath id="SVGID_00000021091276957320963100000015426074220549833386_">
			<use xlink:href="#SVGID_1_"  style="overflow:visible;"/>
		</clipPath>
		
			<path style="clip-path:url(#SVGID_00000021091276957320963100000015426074220549833386_);fill:none;stroke:#F9F9F9;stroke-width:6;stroke-miterlimit:10;" d="
			M771.433,609.156c-14.996-29.043-22.822-61.26-22.822-93.946c0-112.336,92.439-204.775,204.775-204.775
			s204.775,92.439,204.775,204.775c0,12.462-1.138,24.899-3.399,37.154"/>
		<g style="clip-path:url(#SVGID_00000021091276957320963100000015426074220549833386_);">
			<defs>
				<path id="SVGID_00000156566217024299720790000004703906437597295285_" d="M1037.212,441.259
					c-4.285-2.906-11.422-6.244-13.183-6.194c-1.105,0.031-11.856,5.649-17.731,9.632
					C828.59,565.151,651.634,690.237,476.273,824.219l957.994,2.305C1310.334,779.336,1156.5,522.144,1037.212,441.259z"/>
			</defs>
			<clipPath id="SVGID_00000027605844489587892490000005256893900608935324_">
				<use xlink:href="#SVGID_00000156566217024299720790000004703906437597295285_"  style="overflow:visible;"/>
			</clipPath>
			<g style="clip-path:url(#SVGID_00000027605844489587892490000005256893900608935324_);">
				
					<line style="fill:none;stroke:#FFB831;stroke-width:12.902;stroke-miterlimit:10;" x1="1492.05" y1="826.525" x2="852.263" y2="826.525"/>
				
					<line style="fill:none;stroke:#FFB831;stroke-width:12.2748;stroke-miterlimit:10;" x1="1492.05" y1="804.777" x2="852.263" y2="804.777"/>
				
					<line style="fill:none;stroke:#FFB831;stroke-width:11.6476;stroke-miterlimit:10;" x1="1492.05" y1="783.029" x2="852.263" y2="783.029"/>
				
					<line style="fill:none;stroke:#FFB831;stroke-width:11.0205;stroke-miterlimit:10;" x1="1492.05" y1="761.281" x2="852.263" y2="761.281"/>
				
					<line style="fill:none;stroke:#FFB831;stroke-width:10.3933;stroke-miterlimit:10;" x1="1492.05" y1="739.534" x2="852.263" y2="739.534"/>
				
					<line style="fill:none;stroke:#FFB831;stroke-width:9.7661;stroke-miterlimit:10;" x1="1492.05" y1="717.786" x2="852.263" y2="717.786"/>
				
					<line style="fill:none;stroke:#FFB831;stroke-width:9.1389;stroke-miterlimit:10;" x1="1492.05" y1="696.038" x2="852.263" y2="696.038"/>
				
					<line style="fill:none;stroke:#FFB831;stroke-width:8.5117;stroke-miterlimit:10;" x1="1492.05" y1="674.291" x2="852.263" y2="674.291"/>
				
					<line style="fill:none;stroke:#FFB831;stroke-width:7.8846;stroke-miterlimit:10;" x1="1492.05" y1="652.543" x2="852.263" y2="652.543"/>
				
					<line style="fill:none;stroke:#FFB831;stroke-width:7.2574;stroke-miterlimit:10;" x1="1492.05" y1="630.795" x2="852.263" y2="630.795"/>
				
					<line style="fill:none;stroke:#FFB831;stroke-width:6.6302;stroke-miterlimit:10;" x1="1492.05" y1="609.047" x2="852.263" y2="609.047"/>
				
					<line style="fill:none;stroke:#FFB831;stroke-width:6.003;stroke-miterlimit:10;" x1="1492.05" y1="587.299" x2="852.263" y2="587.299"/>
				
					<line style="fill:none;stroke:#FFB831;stroke-width:5.3758;stroke-miterlimit:10;" x1="1492.05" y1="565.552" x2="852.263" y2="565.552"/>
				
					<line style="fill:none;stroke:#FFB831;stroke-width:4.7487;stroke-miterlimit:10;" x1="1492.05" y1="543.804" x2="852.263" y2="543.804"/>
				
					<line style="fill:none;stroke:#FFB831;stroke-width:4.1215;stroke-miterlimit:10;" x1="1492.05" y1="522.056" x2="852.263" y2="522.056"/>
				
					<line style="fill:none;stroke:#FFB831;stroke-width:3.4943;stroke-miterlimit:10;" x1="1492.05" y1="500.308" x2="852.263" y2="500.308"/>
				
					<line style="fill:none;stroke:#FFB831;stroke-width:2.8671;stroke-miterlimit:10;" x1="1492.05" y1="478.561" x2="852.263" y2="478.561"/>
				
					<line style="fill:none;stroke:#FFB831;stroke-width:2.2399;stroke-miterlimit:10;" x1="1492.05" y1="456.813" x2="852.263" y2="456.813"/>
				
					<line style="fill:none;stroke:#FFB831;stroke-width:1.6128;stroke-miterlimit:10;" x1="1492.05" y1="435.065" x2="852.263" y2="435.065"/>
			</g>
		</g>
		<g style="clip-path:url(#SVGID_00000021091276957320963100000015426074220549833386_);">
			<path style="fill:#F9F4F2;" d="M476.273,824.219l521.84,1.256c0.102-0.994,0.229-1.988,0.387-2.979
				c2.406-15.098,10.762-27.324,18.787-38.733c10.048-14.285,20.095-28.57,30.143-42.854c6.336-9.008,13.128-19.695,12.137-31.723
				c-0.973-11.806-9.142-19.987-17.149-25.357c-30.154-20.224-66.011-20.288-98.263-34.173
				c-9.701-4.177-19.894-10.653-23.849-22.984c-3.349-10.442-1.29-22.927,3.234-32.808c4.525-9.881,11.236-17.684,17.836-25.315
				c25.416-29.385,50.833-58.77,76.25-88.155c6.779-7.838,14.187-17.604,13.365-29.259c-0.466-6.598-3.539-11.944-7.657-15.866
				c-2.708,1.039-11.802,5.88-17.036,9.427C828.59,565.151,651.634,690.237,476.273,824.219z"/>
			<g>
				<path style="fill:#FF7E33;" d="M1059.567,709.186c0.991,12.027-5.801,22.715-12.137,31.723
					c-10.048,14.284-20.096,28.569-30.143,42.854c-8.025,11.409-16.382,23.635-18.787,38.733c-0.158,0.991-0.284,1.985-0.387,2.979
					l215.668,0.519c-24.007-19.188-120.341-96.464-161.951-134.098C1055.908,696.507,1058.993,702.214,1059.567,709.186z"/>
			</g>
		</g>
	</g>
</g>
</svg>
